<svg width="202" height="19" viewBox="0 0 202 19" fill="none" xmlns="http://www.w3.org/2000/svg">
<path d="M0.84 12.552H5.448V12.648C5.448 13.352 5.664 13.888 6.096 14.256C6.704 14.864 7.784 15.168 9.336 15.168C10.488 15.168 11.288 15.04 11.736 14.784C12.472 14.4 12.84 13.84 12.84 13.104C12.84 12.448 12.448 11.968 11.664 11.664C11.344 11.536 10.568 11.352 9.336 11.112L6.912 10.728C6.128 10.616 5.48 10.512 4.968 10.416C4.472 10.304 3.912 10.12 3.288 9.864C2.68 9.592 2.208 9.272 1.872 8.904C1.248 8.168 0.936 7.272 0.936 6.216C0.936 4.312 1.704 2.88 3.24 1.92C4.536 1.12 6.368 0.719999 8.736 0.719999C11.376 0.719999 13.328 1.096 14.592 1.848C16.192 2.776 16.944 4.136 16.848 5.928H12.384C12.304 5.208 11.968 4.696 11.376 4.392C10.752 4.088 9.856 3.936 8.688 3.936C7.632 3.936 6.864 4.088 6.384 4.392C5.824 4.76 5.544 5.248 5.544 5.856C5.544 6.432 5.944 6.856 6.744 7.128C7.16 7.304 8.12 7.504 9.624 7.728L11.544 8.04C13.64 8.408 15.064 8.872 15.816 9.432C16.952 10.28 17.52 11.504 17.52 13.104C17.52 14.864 16.864 16.224 15.552 17.184C14.32 18.048 12.344 18.48 9.624 18.48C7.912 18.48 6.44 18.352 5.208 18.096C3.976 17.84 2.976 17.312 2.208 16.512C1.296 15.552 0.84 14.264 0.84 12.648V12.552ZM28.6464 18V16.488H28.5504C28.0384 17.16 27.4304 17.648 26.7264 17.952C26.0704 18.24 25.1184 18.384 23.8704 18.384C22.0144 18.384 20.6784 17.992 19.8624 17.208C19.0144 16.408 18.5904 15.112 18.5904 13.32V5.808H22.8144V12.552C22.8144 13.704 23.0464 14.496 23.5104 14.928C23.9264 15.344 24.5504 15.552 25.3824 15.552C26.2944 15.552 27.0064 15.28 27.5184 14.736C28.0784 14.128 28.3584 13.112 28.3584 11.688V5.808H32.5824V18H28.6464ZM34.4077 5.808H38.4637V7.296C38.9757 6.736 39.5437 6.288 40.1677 5.952C40.9037 5.584 41.8077 5.4 42.8797 5.4C44.4957 5.4 45.7677 5.696 46.6957 6.288C47.8797 7.04 48.4717 8.432 48.4717 10.464V18H44.2477V11.4C44.2477 10.12 44.0077 9.256 43.5277 8.808C43.1437 8.424 42.5757 8.232 41.8237 8.232C40.8957 8.232 40.1597 8.52 39.6157 9.096C38.9597 9.784 38.6317 10.888 38.6317 12.408V18H34.4077V5.808ZM49.4794 14.16H53.6074V14.232C53.6074 14.776 53.8714 15.192 54.3994 15.48C54.8794 15.688 55.5114 15.792 56.2954 15.792C57.1274 15.792 57.6954 15.696 57.9994 15.504C58.4474 15.28 58.6714 14.96 58.6714 14.544C58.6714 14.096 58.3674 13.736 57.7594 13.464C57.4234 13.336 56.7354 13.2 55.6954 13.056L54.2554 12.84C52.5594 12.6 51.4474 12.304 50.9194 11.952C50.0394 11.408 49.5994 10.544 49.5994 9.36C49.5994 7.968 50.2154 6.92 51.4474 6.216C52.4074 5.624 53.9274 5.328 56.0074 5.328C57.6234 5.328 59.0554 5.544 60.3034 5.976C61.6794 6.6 62.3834 7.664 62.4154 9.168H58.3834V9.12C58.3834 8.672 58.1514 8.336 57.6874 8.112C57.2874 7.92 56.7354 7.824 56.0314 7.824C55.3274 7.824 54.7994 7.912 54.4474 8.088C53.9834 8.344 53.7514 8.672 53.7514 9.072C53.7514 9.44 53.9914 9.736 54.4714 9.96C54.5994 10.024 54.7514 10.08 54.9274 10.128C55.1194 10.176 55.2874 10.208 55.4314 10.224C55.5914 10.24 55.8234 10.272 56.1274 10.32C56.4474 10.368 56.7194 10.408 56.9434 10.44L58.5754 10.68C60.0474 10.888 61.1274 11.264 61.8154 11.808C62.5994 12.416 62.9914 13.272 62.9914 14.376C62.9914 15.4 62.6634 16.264 62.0074 16.968C61.3994 17.592 60.6634 18 59.7994 18.192C58.9514 18.384 57.8954 18.48 56.6314 18.48C55.1434 18.48 53.9194 18.384 52.9594 18.192C52.0154 18 51.2314 17.616 50.6074 17.04C49.8554 16.288 49.4794 15.344 49.4794 14.208V14.16ZM64.0234 1.2H68.2474V7.128C68.6794 6.568 69.2154 6.152 69.8554 5.88C70.5434 5.56 71.4874 5.4 72.6874 5.4C74.1914 5.4 75.3834 5.672 76.2634 6.216C76.8234 6.568 77.2474 7.04 77.5354 7.632C77.8234 8.208 77.9834 8.696 78.0154 9.096C78.0634 9.496 78.0874 10.016 78.0874 10.656V18H73.8634V11.4C73.8634 10.216 73.6474 9.384 73.2154 8.904C72.7674 8.456 72.1354 8.232 71.3194 8.232C70.3914 8.232 69.6714 8.52 69.1594 9.096C68.5514 9.816 68.2474 10.944 68.2474 12.48V18H64.0234V1.2ZM79.839 3.864V1.032H84.063V3.864H79.839ZM79.839 5.808H84.063V18H79.839V5.808ZM85.8812 5.808H89.9372V7.296C90.4492 6.736 91.0172 6.288 91.6412 5.952C92.3772 5.584 93.2812 5.4 94.3532 5.4C95.9692 5.4 97.2412 5.696 98.1692 6.288C99.3532 7.04 99.9452 8.432 99.9452 10.464V18H95.7212V11.4C95.7212 10.12 95.4812 9.256 95.0012 8.808C94.6172 8.424 94.0492 8.232 93.2972 8.232C92.3692 8.232 91.6332 8.52 91.0892 9.096C90.4332 9.784 90.1052 10.888 90.1052 12.408V18H85.8812V5.808ZM105.513 10.536H112.257C112.193 9.704 111.905 9.08 111.393 8.664C110.849 8.184 110.017 7.944 108.897 7.944C107.889 7.944 107.097 8.168 106.521 8.616C105.913 9.112 105.577 9.752 105.513 10.536ZM112.185 14.016H116.433C116.241 15.84 115.361 17.104 113.793 17.808C112.801 18.24 111.273 18.456 109.209 18.456C107.641 18.456 106.361 18.336 105.369 18.096C104.377 17.856 103.521 17.376 102.801 16.656C101.681 15.536 101.121 14.016 101.121 12.096C101.121 10.032 101.729 8.416 102.945 7.248C104.273 5.984 106.249 5.352 108.873 5.352C111.609 5.352 113.633 6.008 114.945 7.32C116.049 8.424 116.601 10.072 116.601 12.264V12.696H105.441V12.768C105.441 13.696 105.705 14.424 106.233 14.952C106.777 15.496 107.673 15.768 108.921 15.768C109.913 15.768 110.641 15.656 111.105 15.432C111.681 15.16 112.041 14.688 112.185 14.016ZM127.667 11.712H132.803L130.211 5.424L127.667 11.712ZM126.587 14.592L125.123 18H120.515L128.051 1.2H132.395L139.931 18H135.323L133.859 14.592H126.587ZM139.956 1.2H144.18V7.128C144.612 6.568 145.148 6.152 145.788 5.88C146.476 5.56 147.42 5.4 148.62 5.4C150.124 5.4 151.316 5.672 152.196 6.216C152.756 6.568 153.18 7.04 153.468 7.632C153.756 8.208 153.916 8.696 153.948 9.096C153.996 9.496 154.02 10.016 154.02 10.656V18H149.796V11.4C149.796 10.216 149.58 9.384 149.148 8.904C148.7 8.456 148.068 8.232 147.252 8.232C146.324 8.232 145.604 8.52 145.092 9.096C144.484 9.816 144.18 10.944 144.18 12.48V18H139.956V1.2ZM159.353 10.536H166.097C166.033 9.704 165.745 9.08 165.233 8.664C164.689 8.184 163.857 7.944 162.737 7.944C161.729 7.944 160.937 8.168 160.361 8.616C159.753 9.112 159.417 9.752 159.353 10.536ZM166.025 14.016H170.273C170.081 15.84 169.201 17.104 167.633 17.808C166.641 18.24 165.113 18.456 163.049 18.456C161.481 18.456 160.201 18.336 159.209 18.096C158.217 17.856 157.361 17.376 156.641 16.656C155.521 15.536 154.961 14.016 154.961 12.096C154.961 10.032 155.569 8.416 156.785 7.248C158.113 5.984 160.089 5.352 162.713 5.352C165.449 5.352 167.473 6.008 168.785 7.32C169.889 8.424 170.441 10.072 170.441 12.264V12.696H159.281V12.768C159.281 13.696 159.545 14.424 160.073 14.952C160.617 15.496 161.513 15.768 162.761 15.768C163.753 15.768 164.481 15.656 164.945 15.432C165.521 15.16 165.881 14.688 166.025 14.016ZM180.857 12.576V12.384C180.633 12.576 180.377 12.712 180.089 12.792C179.817 12.856 179.345 12.92 178.673 12.984L177.785 13.08C176.969 13.16 176.401 13.304 176.081 13.512C175.697 13.816 175.505 14.16 175.505 14.544C175.505 14.976 175.673 15.32 176.009 15.576C176.329 15.832 176.865 15.96 177.617 15.96C178.641 15.96 179.433 15.68 179.993 15.12C180.569 14.544 180.857 13.696 180.857 12.576ZM175.865 9.744H171.593C171.593 8.624 171.985 7.672 172.769 6.888C173.393 6.28 174.145 5.872 175.025 5.664C175.921 5.456 177.017 5.352 178.313 5.352C181.145 5.352 183.073 5.888 184.097 6.96C184.401 7.28 184.633 7.656 184.793 8.088C184.969 8.52 185.065 8.88 185.081 9.168C185.113 9.456 185.129 9.832 185.129 10.296V15.72C185.129 16.312 185.193 16.8 185.321 17.184C185.481 17.456 185.705 17.616 185.993 17.664V18H181.385L181.121 16.8H181.025C180.561 17.392 179.929 17.824 179.129 18.096C178.393 18.336 177.425 18.456 176.225 18.456C174.449 18.456 173.185 18.2 172.433 17.688C171.489 17.016 171.017 16.048 171.017 14.784C171.017 13.776 171.321 12.976 171.929 12.384C172.281 12.048 172.769 11.776 173.393 11.568C174.017 11.36 174.497 11.232 174.833 11.184C175.185 11.136 175.705 11.08 176.393 11.016L178.313 10.848C178.809 10.8 179.153 10.768 179.345 10.752C179.553 10.736 179.777 10.696 180.017 10.632C180.257 10.552 180.433 10.448 180.545 10.32C180.737 10.128 180.833 9.864 180.833 9.528C180.833 9.016 180.577 8.616 180.065 8.328C179.681 8.104 179.121 7.992 178.385 7.992C177.585 7.992 176.977 8.136 176.561 8.424C176.113 8.776 175.881 9.216 175.865 9.744ZM194.321 8.112C193.265 8.112 192.433 8.456 191.825 9.144C191.265 9.8 190.985 10.72 190.985 11.904C190.985 13.104 191.313 14.064 191.969 14.784C192.545 15.392 193.345 15.696 194.369 15.696C195.345 15.696 196.113 15.416 196.673 14.856C197.393 14.136 197.753 13.144 197.753 11.88C197.753 10.808 197.481 9.928 196.937 9.24C196.329 8.488 195.457 8.112 194.321 8.112ZM197.825 16.56H197.729C197.377 17.184 196.841 17.648 196.121 17.952C195.449 18.24 194.449 18.384 193.121 18.384C192.065 18.384 191.145 18.28 190.361 18.072C189.593 17.864 188.873 17.416 188.201 16.728C187.113 15.592 186.569 14 186.569 11.952C186.569 9.824 187.201 8.176 188.465 7.008C189.569 5.952 191.169 5.424 193.265 5.424C194.417 5.424 195.361 5.6 196.097 5.952C196.753 6.224 197.265 6.64 197.633 7.2V1.2H201.857V18H197.825V16.56Z" fill="black"/>
</svg>
