<svg width="160" height="26" viewBox="0 0 160 26" fill="none" xmlns="http://www.w3.org/2000/svg">
<path d="M7.97734 21.583C6.56707 21.583 5.19929 21.3957 3.87398 21.0213C2.56566 20.6298 1.51221 20.1277 0.713623 19.5149L2.11539 16.4C2.87999 16.9617 3.78902 17.4128 4.84247 17.7532C5.89592 18.0936 6.94937 18.2638 8.00283 18.2638C9.17521 18.2638 10.0418 18.0936 10.6025 17.7532C11.1632 17.3957 11.4435 16.9277 11.4435 16.3489C11.4435 15.9234 11.2736 15.5745 10.9338 15.3021C10.611 15.0128 10.1862 14.783 9.65946 14.6128C9.14973 14.4426 8.45309 14.2553 7.56955 14.0511C6.21026 13.7277 5.09734 13.4043 4.23079 13.0809C3.36424 12.7574 2.61663 12.2383 1.98796 11.5234C1.37628 10.8085 1.07044 9.85532 1.07044 8.66383C1.07044 7.62553 1.35079 6.68936 1.9115 5.85532C2.47221 5.00426 3.31327 4.33192 4.43468 3.8383C5.57309 3.34468 6.95787 3.09787 8.58902 3.09787C9.72743 3.09787 10.8403 3.23404 11.9278 3.50638C13.0152 3.77872 13.9667 4.17021 14.7823 4.68085L13.508 7.82128C11.8598 6.88511 10.2117 6.41702 8.56353 6.41702C7.40814 6.41702 6.55008 6.60426 5.98938 6.97872C5.44566 7.35319 5.1738 7.84681 5.1738 8.45958C5.1738 9.07234 5.48814 9.53192 6.11681 9.8383C6.76247 10.1277 7.73946 10.417 9.04778 10.7064C10.4071 11.0298 11.52 11.3532 12.3865 11.6766C13.2531 12 13.9922 12.5106 14.6039 13.2085C15.2326 13.9064 15.5469 14.8511 15.5469 16.0426C15.5469 17.0638 15.258 18 14.6803 18.8511C14.1196 19.6851 13.2701 20.3489 12.1317 20.8426C10.9933 21.3362 9.60849 21.583 7.97734 21.583ZM26.2945 21.583C23.7458 21.583 21.7579 20.8766 20.3306 19.4638C18.9203 18.0511 18.2152 16.034 18.2152 13.4128V3.40426H22.3441V13.2596C22.3441 16.4596 23.6694 18.0596 26.32 18.0596C27.6113 18.0596 28.5968 17.6766 29.2765 16.9106C29.9561 16.1277 30.2959 14.9106 30.2959 13.2596V3.40426H34.3738V13.4128C34.3738 16.034 33.6602 18.0511 32.2329 19.4638C30.8226 20.8766 28.8432 21.583 26.2945 21.583ZM54.8164 3.40426V21.2766H51.4267L42.5318 10.4255V21.2766H38.4539V3.40426H41.8692L50.7385 14.2553V3.40426H54.8164ZM64.8994 21.583C63.4891 21.583 62.1213 21.3957 60.796 21.0213C59.4877 20.6298 58.4343 20.1277 57.6357 19.5149L59.0374 16.4C59.802 16.9617 60.7111 17.4128 61.7645 17.7532C62.818 18.0936 63.8714 18.2638 64.9249 18.2638C66.0973 18.2638 66.9638 18.0936 67.5245 17.7532C68.0852 17.3957 68.3656 16.9277 68.3656 16.3489C68.3656 15.9234 68.1957 15.5745 67.8558 15.3021C67.533 15.0128 67.1082 14.783 66.5815 14.6128C66.0718 14.4426 65.3751 14.2553 64.4916 14.0511C63.1323 13.7277 62.0194 13.4043 61.1528 13.0809C60.2863 12.7574 59.5387 12.2383 58.91 11.5234C58.2983 10.8085 57.9925 9.85532 57.9925 8.66383C57.9925 7.62553 58.2728 6.68936 58.8335 5.85532C59.3943 5.00426 60.2353 4.33192 61.3567 3.8383C62.4951 3.34468 63.8799 3.09787 65.5111 3.09787C66.6495 3.09787 67.7624 3.23404 68.8498 3.50638C69.9373 3.77872 70.8888 4.17021 71.7043 4.68085L70.43 7.82128C68.7819 6.88511 67.1337 6.41702 65.4856 6.41702C64.3302 6.41702 63.4721 6.60426 62.9114 6.97872C62.3677 7.35319 62.0958 7.84681 62.0958 8.45958C62.0958 9.07234 62.4102 9.53192 63.0389 9.8383C63.6845 10.1277 64.6615 10.417 65.9698 10.7064C67.3291 11.0298 68.442 11.3532 69.3086 11.6766C70.1751 12 70.9143 12.5106 71.5259 13.2085C72.1546 13.9064 72.4689 14.8511 72.4689 16.0426C72.4689 17.0638 72.1801 18 71.6024 18.8511C71.0417 19.6851 70.1921 20.3489 69.0537 20.8426C67.9153 21.3362 66.5305 21.583 64.8994 21.583ZM91.6527 3.40426V21.2766H87.5238V13.9489H79.419V21.2766H75.2902V3.40426H79.419V10.4511H87.5238V3.40426H91.6527ZM95.8737 3.40426H100.003V21.2766H95.8737V3.40426ZM120.599 3.40426V21.2766H117.209L108.314 10.4255V21.2766H104.236V3.40426H107.652L116.521 14.2553V3.40426H120.599ZM138.634 17.9574V21.2766H124.82V3.40426H138.303V6.72341H128.923V10.6043H137.207V13.8213H128.923V17.9574H138.634Z" fill="#333333"/>
<path d="M155.752 17.0213H151.504V21.2766H155.752V17.0213Z" fill="#D33903"/>
</svg>
